<?xml version="1.0" ?><svg enable-background="new 0 0 512 512" id="Layer_1" version="1.1" viewBox="0 0 512 512" xml:space="preserve" xmlns="http://www.w3.org/2000/svg" xmlns:xlink="http://www.w3.org/1999/xlink"><g><g><linearGradient gradientUnits="userSpaceOnUse" id="SVGID_1_" x1="-0.0000027" x2="512" y1="256" y2="256"><stop offset="0" style="stop-color:#8DC63F"/><stop offset="1" style="stop-color:#76B83F"/></linearGradient><circle cx="256" cy="256" fill="url(#SVGID_1_)" r="256"/><linearGradient gradientUnits="userSpaceOnUse" id="SVGID_2_" x1="42.6666641" x2="469.3333435" y1="256.0005188" y2="256.0005188"><stop offset="0" style="stop-color:#76B83F"/><stop offset="1" style="stop-color:#8DC63F"/></linearGradient><path d="M256,469.3338623c-117.631012,0-213.3333435-95.7018738-213.3333435-213.3333435    c0-117.6309204,95.7023239-213.333313,213.3333435-213.333313c117.6362,0,213.3333435,95.7024002,213.3333435,213.333313    C469.3333435,373.6319885,373.6362,469.3338623,256,469.3338623z" fill="url(#SVGID_2_)"/></g><g><path d="M253.6281891,164.7434692c-60.5450592,0-109.6277313,49.0821228-109.6277313,109.6287842    c0,60.5450745,49.0826721,109.6272278,109.6277313,109.6272278s109.6272125-49.0821533,109.6272125-109.6272278H253.6281891    V164.7434692z" opacity="0.3"/><path d="M274.3721924,144.0005341v109.6271973H384C384,193.0826721,334.918335,144.0005341,274.3721924,144.0005341    z" opacity="0.3"/></g><g><path d="M245.6281891,156.7434692c-60.5450592,0-109.6277313,49.0821228-109.6277313,109.6287842    c0,60.5450745,49.0826721,109.6272278,109.6277313,109.6272278s109.6272125-49.0821533,109.6272125-109.6272278H245.6281891    V156.7434692z" fill="#FFFFFF"/><path d="M266.3721924,136.0005341v109.6271973H376    C376,185.0826721,326.918335,136.0005341,266.3721924,136.0005341z" fill="#FFFFFF"/></g></g></svg>