<?xml version="1.0" ?><svg id="Layer_1" style="enable-background:new 0 0 512 512;" version="1.1" viewBox="0 0 512 512" xml:space="preserve" xmlns="http://www.w3.org/2000/svg" xmlns:xlink="http://www.w3.org/1999/xlink"><style type="text/css">
	.st0{fill:#ED6F62;}
	.st1{fill:#FFFFFF;}
</style><g id="XMLID_4793_"><circle class="st0" cx="256" cy="256" id="XMLID_4769_" r="256"/><g id="XMLID_4664_"><g id="XMLID_4713_"><g id="XMLID_4714_"><path class="st1" d="M223.4,378.6H140v-170h83.5V378.6z M146.3,372.3h70.9V214.9h-70.9V372.3z" id="XMLID_5388_"/></g></g><g id="XMLID_4712_"><path class="st1" d="M181.7,205l-19.3-20.8h-22.3v-45h83.3v45H201L181.7,205z M146.4,177.9h18.8l16.6,17.9     l16.6-17.9h18.8v-32.5h-70.7V177.9z" id="XMLID_4699_"/></g><g id="XMLID_4700_"><path class="st1" d="M163.8,158.8c-0.7,0-1.3,0.1-1.8,0.3c-0.5,0.2-1,0.4-1.4,0.7l0.6-5.1h7.8v-2.9h-10.5     l-1.2,11.1l2.9,0.2c0.2-0.6,0.5-1,1-1.3c0.4-0.3,1.1-0.4,2-0.4c1,0,1.8,0.4,2.4,1.1c0.6,0.7,0.8,1.7,0.8,2.9     c0,1.2-0.3,2.2-0.8,2.9c-0.5,0.7-1.3,1.1-2.4,1.1c-0.9,0-1.6-0.3-2.2-0.8c-0.6-0.5-0.8-1.3-0.8-2.2l-3.1,0.1l0,0.1     c0,1.8,0.5,3.1,1.7,4.1c1.2,0.9,2.7,1.4,4.4,1.4c2.2,0,3.8-0.6,4.9-1.9c1.1-1.2,1.6-2.8,1.6-4.8c0-2.1-0.5-3.7-1.5-4.9     C167.1,159.3,165.7,158.8,163.8,158.8z" id="XMLID_4711_"/><path class="st1" d="M179,151.5c-2,0-3.6,0.7-4.8,2c-1.2,1.3-1.8,3.1-1.8,5.4v5.7c0,2.3,0.6,4.1,1.8,5.4     c1.2,1.3,2.8,2,4.8,2c2,0,3.6-0.7,4.7-2c1.2-1.3,1.8-3.1,1.8-5.4V159c0-2.3-0.6-4.1-1.8-5.4C182.6,152.2,181,151.5,179,151.5z      M182.3,165.1c0,1.4-0.3,2.4-0.8,3.2c-0.6,0.7-1.3,1.1-2.4,1.1c-1,0-1.8-0.4-2.4-1.1c-0.6-0.8-0.8-1.8-0.8-3.2v-6.6     c0-1.3,0.3-2.4,0.8-3.1c0.6-0.8,1.3-1.1,2.4-1.1c1,0,1.8,0.4,2.4,1.1c0.6,0.8,0.8,1.8,0.8,3.1V165.1z" id="XMLID_4708_"/><path class="st1" d="M195.7,159.6c0.8-0.8,1.1-1.8,1.1-2.9v-1.1c0-1.2-0.4-2.2-1.1-2.9     c-0.8-0.8-1.8-1.2-3.1-1.2c-1.3,0-2.3,0.4-3.1,1.2c-0.8,0.8-1.1,1.8-1.1,2.9v1.1c0,1.2,0.4,2.1,1.1,2.9c0.8,0.8,1.8,1.2,3.1,1.2     C193.9,160.8,195,160.4,195.7,159.6z M190.7,156.7v-1.1c0-0.6,0.2-1.1,0.5-1.5c0.3-0.4,0.8-0.6,1.4-0.6c0.6,0,1.1,0.2,1.4,0.6     c0.3,0.4,0.5,0.9,0.5,1.5v1.1c0,0.6-0.2,1.1-0.5,1.5c-0.3,0.4-0.8,0.6-1.4,0.6c-0.6,0-1.1-0.2-1.4-0.6     C190.9,157.8,190.7,157.3,190.7,156.7z" id="XMLID_4705_"/><polygon class="st1" id="XMLID_4704_" points="201.4,153.7 191.6,169.3 193.3,170.3 203.1,154.7    "/><path class="st1" d="M205.3,164c-0.8-0.8-1.8-1.2-3.1-1.2c-1.3,0-2.3,0.4-3.1,1.2c-0.8,0.8-1.1,1.8-1.1,2.9v1.1     c0,1.2,0.4,2.1,1.1,2.9c0.8,0.8,1.8,1.2,3.1,1.2c1.3,0,2.3-0.4,3.1-1.2c0.8-0.8,1.1-1.8,1.1-2.9v-1.1     C206.4,165.7,206.1,164.7,205.3,164z M204.1,168c0,0.6-0.2,1.1-0.5,1.5c-0.3,0.4-0.8,0.6-1.4,0.6c-0.6,0-1.1-0.2-1.4-0.6     c-0.3-0.4-0.5-0.9-0.5-1.5v-1.1c0-0.6,0.2-1.1,0.5-1.5c0.3-0.4,0.8-0.6,1.4-0.6c0.6,0,1.1,0.2,1.4,0.6c0.3,0.4,0.5,0.9,0.5,1.5     V168z" id="XMLID_4701_"/></g><g id="XMLID_4697_"><g id="XMLID_4698_"><path class="st1" d="M402.7,378.6h-83.5V175.9h83.5V378.6z M325.6,372.3h70.9V182.2h-70.9V372.3z" id="XMLID_5383_"/></g></g><g id="XMLID_4696_"><path class="st1" d="M361,171.9L341.7,151h-22.3v-45h83.3v45h-22.3L361,171.9z M325.7,144.8h18.8l16.6,17.9     l16.6-17.9h18.8v-32.5h-70.7V144.8z" id="XMLID_4683_"/></g><g id="XMLID_4684_"><path class="st1" d="M335.9,123.5h10.4c-2,2.4-3.6,4.8-4.6,7.1c-1.1,2.3-1.6,4.9-1.6,7.8v2.3h3.3v-2.3     c0-2.8,0.4-5.2,1.3-7.4c0.8-2.2,2.5-4.7,4.9-7.5v-2.7h-13.6V123.5z" id="XMLID_4695_"/><path class="st1" d="M358.7,120.6c-2,0-3.6,0.7-4.8,2c-1.2,1.3-1.8,3.1-1.8,5.4v5.7c0,2.3,0.6,4.1,1.8,5.4     c1.2,1.3,2.8,2,4.8,2c2,0,3.6-0.7,4.7-2c1.2-1.3,1.8-3.1,1.8-5.4V128c0-2.3-0.6-4.1-1.8-5.4C362.3,121.2,360.7,120.6,358.7,120.6     z M361.9,134.1c0,1.4-0.3,2.4-0.8,3.2c-0.6,0.7-1.3,1.1-2.4,1.1c-1,0-1.8-0.4-2.4-1.1c-0.6-0.8-0.8-1.8-0.8-3.2v-6.6     c0-1.3,0.3-2.4,0.8-3.1c0.6-0.8,1.3-1.1,2.4-1.1c1,0,1.8,0.4,2.4,1.1c0.6,0.8,0.8,1.8,0.8,3.1V134.1z" id="XMLID_4692_"/><path class="st1" d="M375.4,128.7c0.8-0.8,1.1-1.8,1.1-2.9v-1.1c0-1.2-0.4-2.2-1.1-2.9     c-0.8-0.8-1.8-1.2-3.1-1.2c-1.3,0-2.3,0.4-3.1,1.2c-0.8,0.8-1.1,1.8-1.1,2.9v1.1c0,1.2,0.4,2.1,1.1,2.9c0.8,0.8,1.8,1.2,3.1,1.2     C373.6,129.8,374.6,129.5,375.4,128.7z M370.4,125.7v-1.1c0-0.6,0.2-1.1,0.5-1.5c0.3-0.4,0.8-0.6,1.4-0.6c0.6,0,1.1,0.2,1.4,0.6     c0.3,0.4,0.5,0.9,0.5,1.5v1.1c0,0.6-0.2,1.1-0.5,1.5c-0.3,0.4-0.8,0.6-1.4,0.6c-0.6,0-1.1-0.2-1.4-0.6     C370.5,126.8,370.4,126.3,370.4,125.7z" id="XMLID_4689_"/><polygon class="st1" id="XMLID_4688_" points="381,122.7 371.3,138.3 373,139.3 382.7,123.7    "/><path class="st1" d="M385,133c-0.8-0.8-1.8-1.2-3.1-1.2c-1.3,0-2.3,0.4-3.1,1.2c-0.8,0.8-1.1,1.8-1.1,2.9v1.1     c0,1.2,0.4,2.1,1.1,2.9c0.8,0.8,1.8,1.2,3.1,1.2c1.3,0,2.3-0.4,3.1-1.2c0.8-0.8,1.1-1.8,1.1-2.9v-1.1     C386.1,134.7,385.7,133.8,385,133z M383.8,137c0,0.6-0.2,1.1-0.5,1.5c-0.3,0.4-0.8,0.6-1.4,0.6c-0.6,0-1.1-0.2-1.4-0.6     c-0.3-0.4-0.5-0.9-0.5-1.5v-1.1c0-0.6,0.2-1.1,0.5-1.5c0.3-0.4,0.8-0.6,1.4-0.6c0.6,0,1.1,0.2,1.4,0.6c0.3,0.4,0.5,0.9,0.5,1.5     V137z" id="XMLID_4685_"/></g><g id="XMLID_4681_"><g id="XMLID_4682_"><path class="st1" d="M313.1,378.6h-83.5V192.3h83.5V378.6z M235.9,372.3h70.9V198.6h-70.9V372.3z" id="XMLID_5378_"/></g></g><g id="XMLID_4680_"><path class="st1" d="M271.4,188.6L252,167.7h-22.3v-45H313v45h-22.3L271.4,188.6z M236,161.5h18.8l16.6,17.9     l16.6-17.9h18.8V129H236V161.5z" id="XMLID_5374_"/></g><g id="XMLID_4666_"><path class="st1" d="M254.2,143c-0.9,0-1.7,0.2-2.5,0.5c-0.7,0.3-1.4,0.7-1.9,1.3v-1c0-1.6,0.4-2.9,1.1-3.9     c0.7-1,1.7-1.5,2.9-1.5c0.7,0,1.4,0.1,1.9,0.2c0.5,0.1,1.1,0.3,1.6,0.5l0.6-2.6c-0.6-0.2-1.2-0.4-1.9-0.6     c-0.7-0.2-1.5-0.2-2.2-0.2c-2.1,0-3.9,0.8-5.3,2.3c-1.4,1.5-2.1,3.5-2.1,6v4.3c0,2.5,0.6,4.4,1.9,5.8c1.3,1.4,2.9,2.1,4.9,2.1     c1.9,0,3.5-0.6,4.7-1.9c1.2-1.2,1.8-2.9,1.8-4.9c0-1.9-0.5-3.5-1.5-4.6C257.3,143.6,255.9,143,254.2,143z M255.6,152.3     c-0.6,0.8-1.3,1.2-2.3,1.2c-1,0-1.8-0.5-2.5-1.4c-0.6-0.9-1-2.2-1-3.7v-1.2c0.3-0.5,0.7-0.9,1.3-1.2c0.6-0.3,1.2-0.4,2-0.4     c1,0,1.8,0.3,2.4,1c0.6,0.7,0.9,1.6,0.9,2.8C256.4,150.6,256.1,151.6,255.6,152.3z" id="XMLID_4677_"/><path class="st1" d="M268.8,135.6c-2,0-3.6,0.7-4.8,2c-1.2,1.3-1.8,3.1-1.8,5.4v5.7c0,2.3,0.6,4.1,1.8,5.4     c1.2,1.3,2.8,2,4.8,2c2,0,3.6-0.7,4.7-2c1.2-1.3,1.8-3.1,1.8-5.4v-5.7c0-2.3-0.6-4.1-1.8-5.4     C272.4,136.3,270.8,135.6,268.8,135.6z M272,149.2c0,1.4-0.3,2.4-0.8,3.2c-0.6,0.7-1.3,1.1-2.4,1.1c-1,0-1.8-0.4-2.4-1.1     c-0.6-0.8-0.8-1.8-0.8-3.2v-6.6c0-1.3,0.3-2.4,0.8-3.1c0.6-0.8,1.3-1.1,2.4-1.1c1,0,1.8,0.4,2.4,1.1c0.6,0.8,0.8,1.8,0.8,3.1     V149.2z" id="XMLID_4674_"/><path class="st1" d="M285.5,143.7c0.8-0.8,1.1-1.8,1.1-2.9v-1.1c0-1.2-0.4-2.2-1.1-2.9     c-0.8-0.8-1.8-1.2-3.1-1.2c-1.3,0-2.3,0.4-3.1,1.2c-0.8,0.8-1.1,1.8-1.1,2.9v1.1c0,1.2,0.4,2.1,1.1,2.9c0.8,0.8,1.8,1.2,3.1,1.2     C283.7,144.9,284.7,144.5,285.5,143.7z M280.5,140.8v-1.1c0-0.6,0.2-1.1,0.5-1.5c0.3-0.4,0.8-0.6,1.4-0.6c0.6,0,1.1,0.2,1.4,0.6     c0.3,0.4,0.5,0.9,0.5,1.5v1.1c0,0.6-0.2,1.1-0.5,1.5c-0.3,0.4-0.8,0.6-1.4,0.6c-0.6,0-1.1-0.2-1.4-0.6     C280.7,141.9,280.5,141.4,280.5,140.8z" id="XMLID_4671_"/><polygon class="st1" id="XMLID_4670_" points="291.1,137.8 281.4,153.4 283.1,154.4 292.9,138.8    "/><path class="st1" d="M295.1,148c-0.8-0.8-1.8-1.2-3.1-1.2c-1.3,0-2.3,0.4-3.1,1.2c-0.8,0.8-1.1,1.8-1.1,2.9v1.1     c0,1.2,0.4,2.1,1.1,2.9c0.8,0.8,1.8,1.2,3.1,1.2c1.3,0,2.3-0.4,3.1-1.2c0.8-0.8,1.1-1.8,1.1-2.9V151     C296.2,149.8,295.9,148.8,295.1,148z M293.9,152c0,0.6-0.2,1.1-0.5,1.5c-0.3,0.4-0.8,0.6-1.4,0.6c-0.6,0-1.1-0.2-1.4-0.6     c-0.3-0.4-0.5-0.9-0.5-1.5V151c0-0.6,0.2-1.1,0.5-1.5s0.8-0.6,1.4-0.6c0.6,0,1.1,0.2,1.4,0.6c0.3,0.4,0.5,0.9,0.5,1.5V152z" id="XMLID_4667_"/></g><g id="XMLID_4665_"><path class="st1" d="M414.6,416H97.4V96h30.4v289.6h286.9V416z M103.7,409.7h304.7v-17.8H121.5V102.3h-17.8     V409.7z" id="XMLID_4663_"/></g></g></g></svg>