<!DOCTYPE svg PUBLIC "-//W3C//DTD SVG 20010904//EN" "http://www.w3.org/TR/2001/REC-SVG-20010904/DTD/svg10.dtd">
<svg version="1.0" xmlns="http://www.w3.org/2000/svg" width="3000px" height="2352px" viewBox="0 0 12000 9410" preserveAspectRatio="xMidYMid meet">
<g id="layer101" fill="#2b2b7d" stroke="none">
<path d="M0 4705 l0 -4705 6000 0 6000 0 0 4705 0 4705 -6000 0 -6000 0 0 -4705z"/>
</g>
<g id="layer102" fill="#34349a" stroke="none">
<path d="M0 4705 l0 -4705 6000 0 6000 0 0 4705 0 4705 -6000 0 -6000 0 0 -4705z m2730 -2430 c0 -5 -5 -3 -10 5 -5 8 -10 20 -10 25 0 6 5 3 10 -5 5 -8 10 -19 10 -25z m6593 -142 c-7 -2 -21 -2 -30 0 -10 3 -4 5 12 5 17 0 24 -2 18 -5z m74 1 c-3 -3 -12 -4 -19 -1 -8 3 -5 6 6 6 11 1 17 -2 13 -5z m70 -1 c-4 -3 -10 -3 -14 0 -3 4 0 7 7 7 7 0 10 -3 7 -7z m30 0 c-4 -3 -10 -3 -14 0 -3 4 0 7 7 7 7 0 10 -3 7 -7z m-6642 -53 c3 -5 4 -10 1 -10 -3 0 -8 5 -11 10 -3 6 -4 10 -1 10 3 0 8 -4 11 -10z m492 -102 c-3 -8 -6 -5 -6 6 -1 11 2 17 5 13 3 -3 4 -12 1 -19z m16 -38 c3 -11 1 -18 -4 -14 -5 3 -9 12 -9 20 0 20 7 17 13 -6z m5984 -177 c-4 -3 -10 -3 -14 0 -3 4 0 7 7 7 7 0 10 -3 7 -7z m-30 -20 c-4 -3 -10 -3 -14 0 -3 4 0 7 7 7 7 0 10 -3 7 -7z m-180 -130 c-4 -3 -10 -3 -14 0 -3 4 0 7 7 7 7 0 10 -3 7 -7z m23 -23 c-6 -11 -13 -20 -16 -20 -2 0 0 9 6 20 6 11 13 20 16 20 2 0 0 -9 -6 -20z m-53 -42 c-3 -8 -6 -5 -6 6 -1 11 2 17 5 13 3 -3 4 -12 1 -19z m43 -3 c0 -8 -4 -15 -10 -15 -5 0 -7 7 -4 15 4 8 8 15 10 15 2 0 4 -7 4 -15z m-3 -42 c-4 -3 -7 0 -7 7 0 7 3 10 7 7 3 -4 3 -10 0 -14z m0 -60 c-4 -3 -7 0 -7 7 0 7 3 10 7 7 3 -4 3 -10 0 -14z m-6085 -55 c-9 -9 -12 -7 -12 12 0 19 3 21 12 12 9 -9 9 -15 0 -24z m-5 -60 c-3 -7 -5 -2 -5 12 0 14 2 19 5 13 2 -7 2 -19 0 -25z m-12 -68 c-4 -17 -9 -29 -12 -26 -3 2 -2 19 2 36 4 17 9 29 12 26 3 -2 2 -19 -2 -36z m739 -26 c3 -8 2 -12 -4 -9 -6 3 -10 10 -10 16 0 14 7 11 14 -7z m-254 -108 c0 -3 -5 -8 -12 -12 -7 -4 -8 -3 -4 4 7 12 16 16 16 8z m-529 -77 c-5 -13 -10 -19 -10 -12 -1 15 10 45 15 40 3 -2 0 -15 -5 -28z m456 -26 c-4 -3 -7 0 -7 7 0 7 3 10 7 7 3 -4 3 -10 0 -14z m-20 -65 c-3 -8 -6 -5 -6 6 -1 11 2 17 5 13 3 -3 4 -12 1 -19z m-450 -65 c-4 -3 -7 0 -7 7 0 7 3 10 7 7 3 -4 3 -10 0 -14z m-30 -140 c-4 -3 -7 0 -7 7 0 7 3 10 7 7 3 -4 3 -10 0 -14z m300 -40 c-4 -3 -7 0 -7 7 0 7 3 10 7 7 3 -4 3 -10 0 -14z"/>
</g>
<g id="layer103" fill="#404096" stroke="none">
<path d="M0 2491 c0 -28 2 -29 28 -21 15 5 82 14 150 20 95 10 145 9 222 0 98 -12 160 -10 270 10 30 5 66 11 80 14 14 2 -149 4 -362 5 l-388 1 0 -29z"/>
<path d="M1336 2509 c53 -5 114 -5 145 0 44 7 27 9 -91 8 l-145 0 91 -8z"/>
<path d="M2407 2509 c18 -5 35 -14 38 -19 10 -17 32 -11 38 10 5 18 0 20 -51 19 -52 -1 -54 -2 -25 -10z"/>
<path d="M2673 2513 c4 -3 10 -3 14 0 3 4 0 7 -7 7 -7 0 -10 -3 -7 -7z"/>
<path d="M2746 2483 c9 -21 19 -50 22 -65 2 -16 8 -28 12 -28 5 0 11 -9 15 -19 4 -13 19 -22 45 -26 36 -6 40 -10 40 -36 0 -26 -4 -31 -27 -28 -12 1 -25 -45 -14 -49 5 -2 7 -10 4 -18 -3 -7 2 -17 11 -20 9 -3 13 -10 10 -15 -3 -5 -2 -9 3 -9 4 0 9 -14 10 -32 1 -17 6 -34 11 -37 9 -6 52 -93 52 -105 0 -3 -9 -2 -20 4 -11 6 -19 14 -18 18 1 4 -4 20 -10 35 -7 16 -12 32 -12 36 0 14 -30 34 -38 26 -4 -4 -1 -10 6 -12 6 -3 12 -11 12 -19 0 -8 5 -23 10 -34 5 -11 15 -29 20 -40 6 -12 8 -25 5 -30 -4 -6 -2 -10 4 -10 6 0 8 -7 5 -15 -4 -8 -1 -15 5 -15 6 0 11 5 11 10 0 20 38 10 45 -12 20 -59 26 -87 30 -143 5 -67 24 -145 35 -145 11 0 64 -110 76 -159 20 -76 0 -183 -26 -141 -12 20 -16 13 -27 -52 -13 -74 -2 -87 13 -16 l11 53 12 -30 c10 -23 10 -45 2 -95 -12 -75 -24 -192 -22 -234 0 -32 -42 -119 -54 -108 -4 4 -5 -3 -2 -15 5 -21 -6 -89 -20 -123 -3 -8 -5 -31 -4 -51 1 -21 -1 -39 -6 -42 -5 -3 -8 -30 -7 -59 1 -29 -3 -62 -9 -73 -6 -11 -11 -31 -12 -45 0 -14 -4 -31 -8 -37 -5 -7 -6 -17 -3 -21 2 -4 1 -14 -5 -22 -7 -13 -9 -12 -9 3 0 9 -4 17 -10 17 -5 0 -10 -9 -10 -20 0 -11 7 -20 16 -20 12 0 13 -5 8 -22 -5 -13 -7 -34 -6 -48 1 -14 2 -33 2 -43 1 -18 20 -25 20 -7 0 6 5 10 11 10 5 0 9 -10 7 -22 -2 -18 2 -24 24 -26 20 -2 32 4 49 27 13 17 30 31 38 31 35 1 72 58 91 140 7 30 21 82 31 115 10 33 20 86 23 118 3 32 9 64 13 70 4 7 8 21 9 32 1 26 20 71 32 79 13 8 22 -43 12 -68 -7 -17 -9 -18 -9 -3 -1 19 -21 24 -21 4 0 -7 7 -23 16 -35 11 -16 16 -54 19 -140 2 -64 5 -123 6 -129 3 -19 44 -16 61 5 45 51 51 79 55 287 4 198 16 305 34 305 5 0 9 8 9 18 0 26 97 125 125 128 23 2 41 -22 59 -83 10 -32 64 -59 133 -67 54 -6 62 -5 66 11 9 34 1 68 -24 108 -56 87 -89 159 -89 194 0 24 -9 49 -25 71 -14 19 -25 38 -25 44 0 8 -73 81 -180 181 -53 48 -90 103 -93 137 -2 12 -12 41 -24 63 -23 44 -56 156 -57 195 0 14 -7 31 -14 39 -7 7 -11 20 -8 28 3 8 -1 27 -9 43 -8 15 -15 43 -17 62 -1 18 -6 39 -11 45 -5 7 -7 19 -4 27 3 7 1 18 -3 22 -5 5 -18 37 -29 70 -18 58 -18 108 0 120 32 19 -14 24 -246 24 l-255 0 16 -37z m428 -17 c-6 -16 -24 -23 -24 -8 0 10 22 33 27 28 2 -2 1 -11 -3 -20z m-19 -36 c-3 -5 -11 -10 -16 -10 -6 0 -7 5 -4 10 3 6 11 10 16 10 6 0 7 -4 4 -10z m-145 -75 c0 -8 -7 -15 -15 -15 -8 0 -15 7 -15 15 0 8 7 15 15 15 8 0 15 -7 15 -15z m-40 -10 c0 -8 -7 -15 -15 -15 -16 0 -20 12 -8 23 11 12 23 8 23 -8z m-40 -45 c0 -5 -2 -10 -4 -10 -3 0 -8 5 -11 10 -3 6 -1 10 4 10 6 0 11 -4 11 -10z m-25 -10 c3 -5 1 -10 -4 -10 -6 0 -11 5 -11 10 0 6 2 10 4 10 3 0 8 -4 11 -10z"/>
<path d="M4810 2505 c0 -8 -5 -14 -11 -12 -6 1 -13 -9 -15 -23 -6 -34 -62 -90 -88 -87 -13 1 -24 -6 -31 -20 -5 -13 -17 -23 -26 -23 -8 0 -38 -11 -65 -25 -27 -14 -53 -25 -58 -25 -5 0 -18 -8 -28 -17 -11 -9 -26 -18 -36 -19 -23 -4 -62 -26 -62 -35 0 -5 6 -6 13 -4 6 2 23 7 37 9 14 3 52 15 85 26 58 20 91 23 87 7 -6 -23 53 -100 101 -132 14 -9 29 -25 32 -35 3 -10 16 -21 28 -24 12 -3 55 -30 96 -60 40 -30 79 -52 86 -50 14 6 90 -29 100 -46 3 -5 18 -10 33 -10 40 0 140 -103 184 -187 6 -13 17 -23 23 -23 7 0 25 -15 41 -33 16 -19 38 -39 50 -45 27 -14 84 -68 84 -79 0 -5 17 -17 38 -28 20 -10 48 -29 62 -41 28 -24 77 -43 66 -25 -4 6 -16 11 -26 11 -10 0 -21 4 -25 9 -3 6 7 6 27 0 18 -5 34 -9 35 -9 2 0 3 -5 3 -11 0 -23 24 -37 123 -68 33 -11 40 -10 63 8 15 12 35 21 45 21 11 0 19 5 19 10 0 6 -7 10 -15 10 -9 0 -28 8 -43 17 -24 16 -26 16 -14 1 11 -14 10 -18 -7 -27 -33 -18 -57 -13 -69 14 -15 33 -15 35 3 35 8 0 15 7 15 15 0 13 9 14 53 8 80 -12 170 -9 175 6 3 8 13 22 23 32 11 11 19 25 19 32 0 9 -3 8 -9 -2 -7 -11 -15 -7 -40 16 -17 17 -31 35 -31 41 0 6 -8 13 -19 17 -23 7 -66 70 -75 109 -6 23 -4 27 8 23 8 -3 25 2 38 12 20 17 21 22 10 45 -16 36 -15 46 4 46 11 0 14 -6 9 -21 -5 -14 -3 -19 3 -15 6 3 13 2 17 -4 3 -5 15 -10 27 -10 11 0 22 -8 25 -20 3 -11 11 -20 18 -20 7 0 15 -9 18 -21 3 -12 10 -18 15 -15 6 3 8 15 5 26 -4 15 0 20 16 20 22 0 25 4 36 53 4 20 11 27 23 25 9 -2 15 -11 14 -19 -2 -8 -5 -36 -7 -64 -1 -27 -5 -57 -9 -65 -4 -11 3 -20 26 -29 18 -8 40 -15 50 -15 25 -1 32 -14 18 -31 -10 -12 -10 -15 4 -15 24 0 21 -52 -4 -68 -11 -7 -20 -21 -20 -31 0 -11 -9 -23 -20 -26 -11 -3 -20 -10 -20 -15 0 -13 -52 -60 -66 -60 -6 0 -17 -7 -24 -15 -7 -8 -22 -15 -34 -15 -11 0 -38 -8 -59 -18 -35 -15 -37 -19 -24 -36 13 -18 15 -18 40 -1 19 12 37 15 58 11 18 -3 28 -2 24 4 -3 6 3 10 14 10 26 0 27 -8 4 -27 -14 -11 -14 -13 -3 -10 8 2 19 13 25 25 9 21 61 40 93 34 6 -2 12 1 12 6 0 5 25 21 55 36 35 17 55 33 55 44 0 12 3 13 8 5 6 -9 20 -2 52 27 24 22 48 40 53 40 10 0 85 79 99 104 8 14 12 16 18 6 6 -10 15 -8 39 9 37 27 42 40 5 16 -32 -21 -38 -15 -23 19 14 29 20 31 37 14 9 -9 15 -9 24 0 9 9 8 12 -5 12 -26 0 -20 17 11 32 15 8 26 21 26 31 -1 9 2 17 7 17 5 0 9 8 9 19 0 10 7 25 17 32 9 8 24 31 33 52 10 22 21 34 24 28 13 -20 32 -11 44 21 8 21 9 34 2 36 -5 2 -10 8 -10 13 0 4 7 6 16 2 13 -5 14 2 10 43 -3 27 -2 41 2 31 7 -17 9 -16 20 7 6 14 15 26 19 26 5 0 8 18 8 39 0 22 -3 37 -7 34 -5 -2 -8 -18 -8 -34 0 -19 -4 -28 -10 -24 -17 10 14 155 32 155 4 0 8 8 8 18 0 9 7 30 15 46 13 24 13 27 0 23 -18 -8 -30 27 -16 50 9 16 10 16 11 -4 0 -13 5 -23 10 -23 6 0 10 9 10 20 0 11 5 20 11 20 5 0 8 3 6 8 -3 4 -1 16 4 27 7 18 8 18 8 -4 1 -35 12 -19 16 23 l3 36 -523 0 c-288 0 -525 -4 -527 -9 -1 -4 -27 -10 -56 -13 -40 -4 -55 -2 -59 8 -4 11 -42 14 -184 14 -156 0 -178 -2 -173 -15 7 -16 -30 -55 -50 -55 -17 0 -37 58 -22 64 6 2 -121 5 -281 5 -254 1 -293 -1 -293 -14z m2122 -37 c-7 -7 -12 -8 -12 -2 0 14 12 26 19 19 2 -3 -1 -11 -7 -17z m-2055 -129 c17 -22 27 -85 13 -94 -13 -8 -62 10 -102 37 -14 10 -33 18 -42 18 -27 0 -19 45 10 65 22 14 28 15 35 4 5 -9 7 0 6 23 -2 20 0 35 4 32 4 -2 11 1 15 8 5 7 15 -6 28 -34 12 -25 26 -51 33 -59z m-125 38 c-18 -18 -32 -41 -32 -50 0 -19 -25 -23 -36 -5 -5 7 11 28 41 55 56 49 74 49 27 0z m-52 -1 c0 -3 -5 -8 -12 -12 -7 -4 -8 -3 -4 4 7 12 16 16 16 8z m657 -173 c-4 -3 -10 -3 -14 0 -3 4 0 7 7 7 7 0 10 -3 7 -7z m-443 -53 c-6 -5 -24 21 -24 34 0 6 6 1 14 -10 8 -10 12 -21 10 -24z m-134 -10 c0 -5 -5 -10 -11 -10 -5 0 -7 5 -4 10 3 6 8 10 11 10 2 0 4 -4 4 -10z m190 -23 c0 -5 -4 -5 -10 -2 -5 3 -10 14 -10 23 0 15 2 15 10 2 5 -8 10 -19 10 -23z m-165 3 c3 -5 1 -10 -4 -10 -6 0 -11 5 -11 10 0 6 2 10 4 10 3 0 8 -4 11 -10z m212 -10 c3 -11 9 -20 13 -20 16 0 70 -52 64 -61 -7 -13 -34 -11 -34 2 0 15 -26 39 -43 39 -20 0 -40 27 -33 45 8 21 27 19 33 -5z m303 -4 c0 -3 -4 -8 -10 -11 -5 -3 -10 -1 -10 4 0 6 5 11 10 11 6 0 10 -2 10 -4z m-402 -53 c20 -22 30 -53 17 -53 -17 0 -105 71 -105 84 0 15 68 -9 88 -31z m541 -15 c-1 -20 -2 -20 -6 -4 -4 14 -7 16 -13 6 -5 -7 -13 -9 -21 -5 -9 6 -8 10 7 16 30 12 34 10 33 -13z m-79 -48 c0 -5 -5 -10 -11 -10 -5 0 -7 5 -4 10 3 6 8 10 11 10 2 0 4 -4 4 -10z m1427 -27 c-4 -3 -7 0 -7 7 0 7 3 10 7 7 3 -4 3 -10 0 -14z m-1417 -13 c0 -5 -4 -10 -10 -10 -5 0 -10 5 -10 10 0 6 5 10 10 10 6 0 10 -4 10 -10z m20 -41 c0 -5 -4 -9 -10 -9 -5 0 -10 7 -10 16 0 8 5 12 10 9 6 -3 10 -10 10 -16z m137 -36 c-4 -3 -10 -3 -14 0 -3 4 0 7 7 7 7 0 10 -3 7 -7z m23 -34 c0 -6 -4 -7 -10 -4 -5 3 -10 11 -10 16 0 6 5 7 10 4 6 -3 10 -11 10 -16z m-280 -14 c7 -9 8 -15 2 -15 -5 0 -12 7 -16 15 -3 8 -4 15 -2 15 2 0 9 -7 16 -15z m230 -21 c0 -8 4 -13 9 -10 5 3 11 -3 14 -14 7 -27 -8 -25 -27 2 -18 26 -20 38 -6 38 6 0 10 -7 10 -16z m-175 -31 c13 -16 25 -36 25 -45 0 -15 -3 -14 -23 5 -13 12 -22 25 -20 30 3 4 -3 10 -11 13 -9 3 -16 10 -16 15 0 17 21 9 45 -18z m122 -30 c-4 -3 -7 0 -7 7 0 7 3 10 7 7 3 -4 3 -10 0 -14z m150 10 c-4 -3 -10 -3 -14 0 -3 4 0 7 7 7 7 0 10 -3 7 -7z m-62 -12 c-3 -6 3 -14 12 -20 10 -6 13 -11 8 -11 -13 0 -35 20 -35 32 0 4 5 8 11 8 5 0 8 -4 4 -9z m-215 -48 c0 -22 -2 -25 -10 -13 -13 20 -13 40 0 40 6 0 10 -12 10 -27z m40 2 c-7 -9 -15 -13 -19 -10 -3 3 1 10 9 15 21 14 24 12 10 -5z m466 -5 c8 0 20 -12 26 -26 10 -21 9 -27 -3 -34 -8 -5 -22 -7 -31 -4 -30 9 -20 -4 28 -36 42 -29 45 -34 38 -63 -3 -18 -7 -33 -9 -35 -1 -1 -17 4 -36 12 -29 13 -109 86 -109 101 0 8 28 6 33 -2 2 -5 2 -1 -1 7 -14 47 -14 50 1 50 9 0 19 -5 23 -11 10 -18 26 17 20 44 -3 12 -3 16 0 10 3 -7 12 -13 20 -13z m-259 3 c-4 -3 -10 -3 -14 0 -3 4 0 7 7 7 7 0 10 -3 7 -7z m170 -30 c-4 -3 -10 -3 -14 0 -3 4 0 7 7 7 7 0 10 -3 7 -7z m-334 -24 c3 -13 1 -19 -6 -16 -15 5 -22 37 -9 37 5 0 12 -9 15 -21z m31 -45 c3 -8 2 -12 -4 -9 -6 3 -10 10 -10 16 0 14 7 11 14 -7z m192 -89 c4 -8 9 -13 13 -11 3 1 19 -12 34 -30 22 -25 25 -34 13 -34 -17 0 -86 65 -86 80 0 16 20 12 26 -5z"/>
<path d="M4801 2304 c0 -11 3 -14 6 -6 3 7 2 16 -1 19 -3 4 -6 -2 -5 -13z"/>
<path d="M4830 2300 c0 -11 2 -20 4 -20 2 0 6 9 9 20 3 11 1 20 -4 20 -5 0 -9 -9 -9 -20z"/>
<path d="M5840 1645 c7 -9 15 -13 17 -11 7 7 -7 26 -19 26 -6 0 -6 -6 2 -15z"/>
<path d="M5420 2500 c0 -11 5 -20 10 -20 6 0 10 9 10 20 0 11 -4 20 -10 20 -5 0 -10 -9 -10 -20z"/>
<path d="M6985 2490 c3 -5 8 -10 11 -10 2 0 4 5 4 10 0 6 -5 10 -11 10 -5 0 -7 -4 -4 -10z"/>
<path d="M2690 2482 c1 -4 7 -18 14 -31 l14 -24 0 26 c0 14 -7 28 -14 31 -8 3 -14 2 -14 -2z"/>
<path d="M6951 2409 c-7 -12 -10 -23 -8 -26 3 -3 11 5 17 17 15 28 8 35 -9 9z"/>
<path d="M2720 2412 c0 -4 7 -18 16 -30 14 -20 14 -26 1 -45 -10 -16 -11 -28 -4 -44 10 -23 27 -31 27 -13 0 6 -4 10 -10 10 -5 0 -10 7 -10 16 0 8 4 13 9 10 9 -6 6 78 -4 94 -7 12 -25 13 -25 2z"/>
<path d="M2824 2288 c-4 -7 -3 -8 4 -4 7 4 12 9 12 12 0 8 -9 4 -16 -8z"/>
<path d="M2786 2281 c-10 -16 14 -55 26 -43 7 7 6 17 -5 32 -9 13 -17 17 -21 11z"/>
<path d="M2810 2219 c0 -4 9 -26 20 -50 11 -24 19 -37 19 -29 0 15 -38 91 -39 79z"/>
<path d="M9250 2122 c-14 -2 -29 -8 -34 -13 -6 -5 -21 -9 -35 -9 -35 0 -48 -10 -61 -44 -8 -21 -8 -38 1 -63 6 -19 8 -51 5 -71 -11 -67 -11 -117 0 -115 6 1 42 -3 80 -8 38 -6 89 -12 114 -14 24 -2 46 -9 48 -14 2 -7 15 -8 29 -5 19 5 24 4 19 -5 -5 -8 -23 -10 -54 -5 -44 6 -46 5 -27 -9 20 -15 68 -13 90 4 6 4 25 7 43 7 18 -1 35 2 38 5 9 8 13 217 6 300 l-5 69 -116 -4 c-64 -1 -127 -5 -141 -6z"/>
<path d="M6876 2074 c-4 -9 -4 -19 -1 -22 2 -3 7 3 11 12 4 9 4 19 1 22 -2 3 -7 -3 -11 -12z"/>
<path d="M2920 1904 c0 -8 5 -12 10 -9 6 3 10 10 10 16 0 5 -4 9 -10 9 -5 0 -10 -7 -10 -16z"/>
<path d="M6760 1900 c0 -5 5 -10 10 -10 6 0 10 5 10 10 0 6 -4 10 -10 10 -5 0 -10 -4 -10 -10z"/>
<path d="M6797 1883 c-10 -19 -18 -67 -9 -58 10 11 25 65 18 65 -3 0 -7 -3 -9 -7z"/>
<path d="M6749 1860 c-7 -14 -18 -32 -24 -41 -25 -40 -45 -79 -41 -79 11 0 87 123 83 134 -2 6 -10 0 -18 -14z"/>
<path d="M2940 1840 c0 -7 3 -10 7 -7 3 4 3 10 0 14 -4 3 -7 0 -7 -7z"/>
<path d="M2956 1775 c8 -37 14 -45 14 -19 0 10 -5 26 -10 34 -8 11 -9 7 -4 -15z"/>
<path d="M9183 1773 c4 -3 10 -3 14 0 3 4 0 7 -7 7 -7 0 -10 -3 -7 -7z"/>
<path d="M9278 1759 c18 -19 15 -24 -13 -24 -14 0 -25 3 -25 7 0 4 -14 5 -31 1 -21 -4 -34 -1 -39 7 -7 11 -13 11 -32 -2 -20 -13 -23 -24 -23 -76 -1 -49 2 -59 12 -50 10 8 13 6 13 -6 0 -9 -4 -16 -10 -16 -5 0 -10 -15 -9 -32 0 -33 0 -33 11 -8 14 31 15 36 17 56 1 12 6 14 19 8 9 -4 40 -9 67 -10 78 -5 129 -15 147 -31 9 -8 36 -17 60 -20 24 -3 51 -10 60 -14 19 -10 20 -49 1 -49 -6 0 -15 -5 -19 -11 -4 -8 1 -9 17 -5 23 7 23 6 -3 -16 -27 -23 -39 -46 -17 -32 13 7 29 -13 29 -37 0 -14 -11 -16 -82 -12 -109 5 -149 12 -171 31 -13 12 -20 13 -29 4 -14 -14 -54 -16 -63 -3 -3 5 5 12 17 14 15 3 9 5 -14 6 -22 0 -38 -4 -38 -10 0 -6 -6 -9 -13 -6 -10 4 -14 -8 -16 -44 -1 -27 -13 -111 -26 -186 -24 -143 -64 -258 -96 -281 -10 -7 -46 -68 -79 -135 l-59 -122 -5 -177 c-3 -98 -10 -186 -16 -197 -17 -33 -13 -112 8 -127 26 -20 48 -17 93 13 51 34 59 54 59 155 0 64 4 85 17 98 16 15 22 14 80 -19 35 -20 63 -41 63 -48 0 -6 8 -18 18 -25 9 -7 25 -29 35 -48 9 -19 28 -53 42 -75 19 -32 24 -54 25 -107 0 -96 1 -98 75 -98 70 0 79 8 68 60 -3 18 0 36 7 45 17 20 54 19 71 -2 12 -14 15 -8 21 48 17 144 49 859 40 873 -4 6 -8 124 -8 261 -1 138 -3 266 -6 285 -2 19 -6 64 -7 100 -2 36 -6 56 -8 44 -4 -20 -6 -21 -61 -8 -31 6 -79 15 -105 19 -37 5 -47 10 -45 23 2 10 -5 18 -17 20 -16 3 -18 1 -7 -9z"/>
<path d="M9087 1742 c-18 -20 -22 -32 -9 -32 4 0 12 11 19 25 13 30 12 31 -10 7z"/>
<path d="M9433 1733 c4 -3 10 -3 14 0 3 4 0 7 -7 7 -7 0 -10 -3 -7 -7z"/>
<path d="M9460 1730 c0 -5 10 -10 23 -10 18 0 19 2 7 10 -19 13 -30 13 -30 0z"/>
<path d="M2965 1720 c3 -5 8 -10 11 -10 2 0 4 5 4 10 0 6 -5 10 -11 10 -5 0 -7 -4 -4 -10z"/>
<path d="M6110 1710 c0 -7 3 -10 7 -7 3 4 3 10 0 14 -4 3 -7 0 -7 -7z"/>
<path d="M2985 1658 c9 -30 46 -90 52 -85 2 3 -5 20 -16 38 -12 19 -21 42 -21 52 0 9 -5 17 -11 17 -6 0 -8 -9 -4 -22z"/>
<path d="M6196 1601 c-4 -5 3 -7 14 -4 23 6 26 13 6 13 -8 0 -17 -4 -20 -9z"/>
<path d="M3040 1540 c0 -7 3 -10 7 -7 3 4 3 10 0 14 -4 3 -7 0 -7 -7z"/>
<path d="M9100 1519 c0 -6 5 -7 10 -4 6 4 10 -9 10 -32 1 -37 1 -37 14 -14 7 13 11 31 9 40 -5 18 -43 26 -43 10z"/>
<path d="M3051 1515 c1 -19 18 -51 18 -35 0 8 -4 22 -9 30 -5 8 -9 11 -9 5z"/>
<path d="M9443 1466 c-6 -7 -8 -18 -4 -24 4 -6 11 -1 18 14 12 26 5 31 -14 10z"/>
<path d="M3073 1415 c0 -27 2 -38 4 -22 2 15 2 37 0 50 -2 12 -4 0 -4 -28z"/>
<path d="M5783 1453 c4 -3 10 -3 14 0 3 4 0 7 -7 7 -7 0 -10 -3 -7 -7z"/>
<path d="M9353 1423 c4 -3 10 -3 14 0 3 4 0 7 -7 7 -7 0 -10 -3 -7 -7z"/>
<path d="M6243 1363 c4 -3 10 -3 14 0 3 4 0 7 -7 7 -7 0 -10 -3 -7 -7z"/>
<path d="M3040 1191 c0 -25 6 -27 13 -6 4 8 2 17 -3 20 -6 4 -10 -3 -10 -14z"/>
<path d="M3018 1084 c-10 -32 -16 -60 -13 -62 2 -3 7 4 11 14 3 10 10 28 16 40 5 12 8 31 6 44 -2 16 -8 5 -20 -36z"/>
<path d="M2990 894 c0 -8 5 -12 10 -9 6 4 8 11 5 16 -9 14 -15 11 -15 -7z"/>
<path d="M2985 850 c-3 -5 -1 -10 4 -10 6 0 11 5 11 10 0 6 -2 10 -4 10 -3 0 -8 -4 -11 -10z"/>
<path d="M2970 770 c0 -7 3 -10 7 -7 3 4 3 10 0 14 -4 3 -7 0 -7 -7z"/>
<path d="M2960 720 c0 -7 3 -10 7 -7 3 4 3 10 0 14 -4 3 -7 0 -7 -7z"/>
<path d="M2950 660 c0 -7 3 -10 7 -7 3 4 3 10 0 14 -4 3 -7 0 -7 -7z"/>
<path d="M2941 610 c0 -8 4 -22 9 -30 12 -18 12 -2 0 25 -6 13 -9 15 -9 5z"/>
<path d="M2930 480 c0 -7 3 -10 7 -7 3 4 3 10 0 14 -4 3 -7 0 -7 -7z"/>
<path d="M2920 440 c0 -7 3 -10 7 -7 3 4 3 10 0 14 -4 3 -7 0 -7 -7z"/>
<path d="M2890 300 c0 -5 5 -10 11 -10 5 0 7 5 4 10 -3 6 -8 10 -11 10 -2 0 -4 -4 -4 -10z"/>
</g>
<g id="layer104" fill="#b4b4d8" stroke="none">
<path d="M0 5975 l0 -3435 6000 0 6000 0 0 3435 0 3435 -6000 0 -6000 0 0 -3435z"/>
</g>
<g id="layer105" fill="#ededf3" stroke="none">
<path d="M0 5975 l0 -3435 6000 0 6000 1 0 3434 0 3435 -6000 0 -6000 0 0 -3435z"/>
</g>


</svg>