<?xml version="1.0" encoding="UTF-8"?><svg xmlns="http://www.w3.org/2000/svg" width="28px" height="29px"><!--Generator: Sketch 52.4 (67378) - http://www.bohemiancoding.com/sketch--><g id="Viz-Mocks-R3-+-Specs" fill="none" fill-rule="evenodd"><g id="Specs" fill-rule="nonzero" transform="translate(-58 -843)"><g id="Group" transform="translate(43 828)"><g id="Group-26" transform="translate(16 16)"><rect id="Rectangle" width="24" height="23" x="3" y="5" fill="#76C5D6" rx="2"/><path id="Combined-Shape" fill="#430E32" stroke="#490533" d="M21.7399467 26H2.26167404C.99510416 26 0 25.00225 0 23.7323125V4.20225c0-1.239875.99510416-2.2676875 2.26167404-2.2676875h2.62308809V.7856875C4.88476213.362375 5.24698653 0 5.66836614 0s.78360401.3631875.78360401.7856875v1.148875H17.5480298V.7856875C17.5480298.362375 17.9102542 0 18.3316339 0c.4213796 0 .783604.3631875.783604.7856875v1.148875h2.6230881C22.9749131 1.9345625 24 2.9323125 24 4.20225v19.5300625C23.9700172 25.00225 22.9749131 26 21.738326 26h.0016207zM.60289699 10.4300625v13.30225c0 .90675.75362123 1.6631875 1.6579667 1.6631875H21.7391363c.9043455 0 1.6579667-.755625 1.6579667-1.6631875v-13.30225H.60208664h.00081034zm0-.6045H23.3679306V4.20225c0-.90675-.7536213-1.662375-1.6587771-1.662375h-3.1960023V.7865c0-.091-.0907587-.1811875-.180707-.1811875-.0899483 0-.180707.091-.180707.1811875v1.753375H5.84988351V.7865c0-.091-.09075868-.1811875-.18070702-.1811875s-.18070703.091-.18070703.1811875v1.753375H2.26248438c-.90434547 0-1.6579667.755625-1.6579667 1.662375v5.6233125h-.0016207z"/><path id="Path" fill="#FFFFFF" stroke="#FFFFFF" stroke-width="0.5" d="M11.3867458 16.2065251c-.2761292.3111995-.6750742.529541-1.1655127.6223989v.0309526c.6132542.0936945 1.0731949.2802468 1.3493241.5914462.3066271.3111994.4294428.7470459.4294428 1.2447977 0 .7470459-.2456314 1.3075394-.7665678 1.7124333C10.7124959 20.8134477 10.0069238 21 9.08621827 21c-.39894494 0-.76656776-.0309526-1.10451698-.0936944C7.64375206 20.8435637 7.3066271 20.7507058 7 20.5951061v-.8407403c.33712496.1555997.67507418.2802468 1.07319486.3739412.39812067.0936945.73606989.1246471 1.07319485.1246471 1.31882629 0 1.99390039-.5295409 1.99390039-1.5877863 0-.9335982-.7360699-1.4003973-2.17771179-1.4003973h-.76656776v-.7470459h.76656776c.58275634 0 1.07319489-.1246471 1.41114409-.4048939.3379492-.2802468.5217606-.6223988.5217606-1.1209871 0-.3739413-.1228157-.6851407-.3989449-.9026456-.2456314-.217505-.61325422-.3111995-1.04269702-.3111995-.33712496 0-.64375206.0309527-.95037916.1246471-.3066271.0936945-.64375206.2492942-1.01219914.4977518l-.4294428-.5914462c.3066271-.2492942.67507418-.4358465 1.07319486-.5914462C8.53313551 13.0619053 8.96340257 13 9.42334322 13c.73606988 0 1.31882628.1865523 1.71777118.5295409.4294428.4048939.6437521.871693.6437521 1.4631392.0008242.4977518-.1219915.9026456-.3981207 1.213845z"/><path id="Combined-Shape" fill="#FFFFFF" stroke="#FFFFFF" stroke-width="0.5" d="M19 17.0308333c0 1.3333334-.2130449 2.3258334-.6096362 2.9766667C17.9634546 20.6583333 17.3538184 21 16.5 21c-.8235005 0-1.4331367-.3408333-1.8600459-1.0233333C14.2130449 19.2941667 14 18.3025 14 17c0-1.3333333.2130449-2.3566667.6096362-3.0075C15.0365454 13.3416667 15.6461816 13 16.5 13c.8235005 0 1.4634546.3408333 1.8903638 1.0233333.3965913.7441667.6096362 1.705.6096362 3.0075zm-4.1461816 0c0 1.1166667.1220911 1.9533334.3965913 2.45.2745002.5275.6710914.775 1.2504097.775.5793183 0 1.0062275-.2483333 1.2504097-.775.2441822-.5266666.3965913-1.3333333.3965913-2.45 0-1.1166666-.1220911-1.9225-.3965913-2.45-.2745002-.5275-.6710914-.775-1.2504097-.775-.5793183 0-.9759095.2483334-1.2504097.775-.2745002.4958334-.3965913 1.3333334-.3965913 2.45z"/></g></g></g></g></svg>